<?xml version="1.0" encoding="utf-8"?>
<!-- Generator: Adobe Illustrator 17.0.0, SVG Export Plug-In . SVG Version: 6.00 Build 0)  -->
<!DOCTYPE svg PUBLIC "-//W3C//DTD SVG 1.1//EN" "http://www.w3.org/Graphics/SVG/1.1/DTD/svg11.dtd">
<svg version="1.1" id="Layer_1" xmlns="http://www.w3.org/2000/svg" xmlns:xlink="http://www.w3.org/1999/xlink" x="0px" y="0px"
	 width="542.287px" height="440.779px" viewBox="0 0 542.287 440.779" enable-background="new 0 0 542.287 440.779"
	 xml:space="preserve">
<path d="M541.92,192.441c0,0-0.044-3.186-0.126-9.159c-0.041-2.987-0.092-6.67-0.152-11.001c-0.028-2.165-0.087-7.3-0.103-7.429
	c-0.016-0.155-3.124-5.469-4.185-6.646c-4.312-4.692-9.936-9.518-16.212-14.655c-6.302-5.129-13.361-10.538-21.036-16.232
	c-15.365-11.381-33.213-23.895-52.916-37.385c-19.732-13.47-41.389-27.872-64.629-42.856c-11.63-7.482-23.634-15.136-36.129-22.755
	c-3.128-1.897-17.918-9.775-19.718-10.501c-7.226-2.886-15.146-5.081-23.359-6.753c-16.464-3.306-34.087-4.633-51.765-4.229
	c-8.842,0.218-17.721,0.879-26.463,2.109c-8.733,1.229-17.363,3.015-25.423,5.637c-4.023,1.311-7.9,2.838-11.45,4.647
	c-1.773,0.905-22.864,15.204-29.286,19.76c-12.841,9.116-88.478,65.158-111.75,84.436c-5.807,4.824-11.499,9.678-16.987,14.591
	c-5.48,4.916-10.788,9.884-15.618,14.989c-2.406,2.553-4.697,5.145-6.674,7.797c-0.981,1.326-1.896,2.668-2.615,4.02
	c-0.722,1.34-1.276,2.737-1.286,3.946c0.24,6.054,1.661,41.71,2.121,53.205c0.413,11.495,6.12,176.616,6.475,187.764
	c0.653,22.297,1.027,35.038,1.027,35.038s-0.702-12.735-1.931-35.02c-0.586-11.143-8.816-176.214-9.374-187.706
	C1.845,206.559,0.266,170.863,0,164.788c0.027-1.834,0.729-3.408,1.514-4.918c0.798-1.509,1.767-2.935,2.794-4.333
	c2.066-2.791,4.406-5.449,6.851-8.06c4.905-5.216,10.244-10.239,15.747-15.204c5.51-4.962,11.213-9.851,17.025-14.707
	c11.633-9.707,23.711-19.275,36.005-28.773c12.311-9.487,24.801-18.929,37.51-28.229c12.694-9.31,25.509-18.539,38.408-27.646
	c6.453-4.552,27.984-19.053,29.893-20.021c3.823-1.936,7.935-3.541,12.163-4.911c8.471-2.736,17.403-4.559,26.397-5.809
	c9.002-1.25,18.098-1.909,27.147-2.116c18.091-0.379,36.077,1.002,53.015,4.434c8.451,1.738,16.638,4.017,24.185,7.048
	c1.88,0.764,17.105,8.967,20.229,10.894c12.456,7.722,24.374,15.448,35.93,23.006c23.085,15.132,44.585,29.667,64.173,43.261
	c19.598,13.588,37.207,26.289,52.363,37.835c7.576,5.774,14.54,11.258,20.759,16.46c6.193,5.212,11.74,10.102,16.008,14.886
	c1.051,1.202,4.157,6.783,4.17,6.94c0.015,0.183-0.059,5.29-0.088,7.456c-0.06,4.331-0.11,8.014-0.151,11.001
	C541.964,189.255,541.92,192.441,541.92,192.441z"/>
</svg>
